<svg width="14" height="11" viewBox="0 0 14 11" fill="none" xmlns="http://www.w3.org/2000/svg">
<path fill-rule="evenodd" clip-rule="evenodd" d="M-0.000976562 0.5C-0.000976562 0.223858 0.222881 0 0.499023 0H13.499C13.7752 0 13.999 0.223858 13.999 0.5C13.999 0.776142 13.7752 1 13.499 1H0.499023C0.222881 1 -0.000976562 0.776142 -0.000976562 0.5ZM-0.000976562 5.5C-0.000976562 5.22386 0.222881 5 0.499023 5H13.499C13.7752 5 13.999 5.22386 13.999 5.5C13.999 5.77614 13.7752 6 13.499 6H0.499023C0.222881 6 -0.000976562 5.77614 -0.000976562 5.5ZM0.499023 10C0.222881 10 -0.000976562 10.2239 -0.000976562 10.5C-0.000976562 10.7761 0.222881 11 0.499023 11H13.499C13.7752 11 13.999 10.7761 13.999 10.5C13.999 10.2239 13.7752 10 13.499 10H0.499023Z" fill="#D9D9D9"/>
</svg>
