<svg width="11" height="11" viewBox="0 0 11 11" fill="none" xmlns="http://www.w3.org/2000/svg">
<path fill-rule="evenodd" clip-rule="evenodd" d="M1.35363 0.353478C1.15837 0.158216 0.841784 0.158216 0.646522 0.353478C0.45126 0.54874 0.451259 0.865322 0.646522 1.06058L4.79286 5.20692L0.353478 9.6463C0.158216 9.84156 0.158216 10.1581 0.353478 10.3534C0.54874 10.5487 0.865322 10.5487 1.06058 10.3534L5.49996 5.91403L9.83891 10.253C10.0342 10.4482 10.3508 10.4482 10.546 10.253C10.7413 10.0577 10.7413 9.74113 10.546 9.54587L6.20707 5.20692L10.253 1.16102C10.4482 0.965757 10.4482 0.649175 10.253 0.453913C10.0577 0.258651 9.74113 0.25865 9.54587 0.453913L5.49996 4.49981L1.35363 0.353478Z" fill="#D9D9D9"/>
</svg>
