<svg xmlns="http://www.w3.org/2000/svg" viewBox="0 0 24 24" width="128" height="128" color="#393939" fill="none">
    <defs />
    <path fill="#141B34" d="M12.73,2.411 C13.252,2.9 13.58,3.509 13.785,4.091 C14.051,3.647 14.287,3.369 14.311,3.341 C14.561,3.051 14.991,3.001 15.3,3.211 C15.38,3.261 17.24,4.561 17.5,6.511 C17.584,7.16 17.477,7.784 17.295,8.33 C17.678,8.148 17.956,8.061 17.99,8.051 C18.36,7.941 18.75,8.121 18.9,8.471 C18.94,8.561 19.82,10.651 19,12.431 C18.789,12.886 18.491,13.27 18.164,13.589 C18.722,13.597 19.113,13.673 19.15,13.681 C19.53,13.751 19.78,14.101 19.75,14.481 C19.75,14.581 19.53,16.831 17.95,18.011 C17.527,18.331 17.055,18.531 16.59,18.654 C16.715,18.836 16.757,19.073 16.69,19.301 L16.687,19.31 C16.629,19.487 15.95,21.58 14.2,22.391 C13.63,22.651 13.03,22.751 12.469,22.751 L12.469,22.741 C11.37,22.741 10.442,22.383 10.259,22.312 C10.244,22.307 10.234,22.303 10.229,22.301 C9.879,22.151 9.7,21.761 9.81,21.391 L9.812,21.384 C9.866,21.219 10.554,19.115 12.3,18.301 C12.676,18.127 13.066,18.028 13.448,17.981 L13.45,17.941 C13.45,17.846 13.65,15.797 15.036,14.584 C15.023,14.56 15.011,14.536 15,14.511 C14.96,14.421 14.08,12.331 14.9,10.551 C14.946,10.45 14.997,10.353 15.051,10.26 C14.563,9.88 13.246,8.709 13.031,7.091 C13.021,7.014 13.013,6.937 13.009,6.861 C12.263,6.85 10.729,6.693 9.65,5.691 C8.338,4.462 8.255,2.476 8.25,2.057 L8.25,1.981 C8.25,1.601 8.55,1.281 8.93,1.251 C8.936,1.251 8.948,1.251 8.966,1.25 C9.275,1.235 11.369,1.135 12.73,2.411 Z M15.021,4.931 C14.731,5.431 14.42,6.161 14.521,6.891 C14.62,7.621 15.101,8.251 15.51,8.661 C15.8,8.161 16.111,7.431 16.01,6.701 C15.92,5.971 15.431,5.341 15.021,4.931 Z M18.1,15.081 C17.55,15.081 16.73,15.161 16.14,15.611 C15.55,16.051 15.24,16.781 15.09,17.331 C15.64,17.331 16.46,17.251 17.05,16.801 C17.64,16.361 17.95,15.631 18.1,15.081 Z M9.82,2.771 C9.92,3.341 10.14,4.101 10.68,4.601 C11.22,5.101 12,5.281 12.57,5.341 C12.47,4.781 12.25,4.011 11.71,3.511 C11.17,3.011 10.39,2.831 9.82,2.771 Z M12.939,19.671 C12.269,19.981 11.819,20.631 11.55,21.141 C12.109,21.261 12.91,21.341 13.569,21.031 C14.24,20.721 14.689,20.071 14.96,19.561 C14.399,19.441 13.609,19.361 12.939,19.671 Z M17.74,9.791 C17.23,10.061 16.58,10.511 16.27,11.181 C15.96,11.851 16.04,12.641 16.16,13.201 C16.67,12.931 17.32,12.481 17.63,11.811 C17.94,11.151 17.86,10.351 17.74,9.791 Z" />
</svg>